# xmcd
#
# Track frame offsets:
#	150
#	16250
#	33447
#	52140
#	71230
#	87682
#	101585
#	118870
#	133007
#	146302
#	164450
#	179952
#	198522
#	216982
#	232322
#	253070
#	271080
#	290690
#
# Disc length: 4214 seconds
# Revision: 3
# Processed by: cddbd v1.5.2PL0 Copyright (c) Steve Scherf et al.
# Submitted via: dBpowerAMP V12.0
#
DISCID=2a107412
DTITLE=Bobby "Blue" Bland - Get on Down With - Reflections in Blue
DYEAR=1999
DGENRE=Blues
TTITLE0=I Take it on Home
TTITLE1=Today I Started Loving You Again
TTITLE2=You've Always Got The Blues
TTITLE3=I Hate You
TTITLE4=You've Never Been This Far Before
TTITLE5=If Fingerprints Showed up on Skin
TTITLE6=Someone to Give my Love to
TTITLE7=Too Far Gone
TTITLE8=You're Gonna Love Yourself (in The Morning)
TTITLE9=The Soul of a Man
TTITLE10=I'll be Your Fool Once More
TTITLE11=Sittin' on a Poor Man's Throne
TTITLE12=I Intend to Take Your Place
TTITLE13=It Ain't The Real Thing
TTITLE14=It's All Over
TTITLE15=If I Weren't a Gambler
TTITLE16=Five Long Years
TTITLE17=I Got The Same Old Blues
EXTD=
EXTT0=
EXTT1=
EXTT2=
EXTT3=
EXTT4=
EXTT5=
EXTT6=
EXTT7=
EXTT8=
EXTT9=
EXTT10=
EXTT11=
EXTT12=
EXTT13=
EXTT14=
EXTT15=
EXTT16=
EXTT17=
PLAYORDER=
